<svg width="25" height="25" viewBox="0 0 25 25" fill="none" xmlns="http://www.w3.org/2000/svg">
<g id="basket-bold">
<path id="Vector" d="M2.97015 11.5521C2.93339 11.4047 2.93069 11.2509 2.96225 11.1023C2.99381 10.9537 3.05881 10.8143 3.1523 10.6946C3.24581 10.5748 3.36534 10.478 3.50185 10.4114C3.63836 10.3448 3.78825 10.3101 3.94015 10.3101H21.3801C21.5321 10.3101 21.6819 10.3448 21.8184 10.4114C21.9549 10.478 22.0745 10.5748 22.168 10.6946C22.2615 10.8143 22.3265 10.9537 22.3581 11.1023C22.3896 11.2509 22.3869 11.4047 22.3502 11.5521L20.5392 18.7951C20.431 19.2278 20.1813 19.6119 19.8298 19.8864C19.4783 20.1609 19.0452 20.31 18.5991 20.3101H6.72115C6.27516 20.31 5.84198 20.1609 5.49048 19.8864C5.13897 19.6119 4.8893 19.2278 4.78115 18.7951L2.97015 11.5531V11.5521Z" stroke="white" stroke-width="1.875" stroke-linejoin="round"/>
<path id="Vector_2" d="M9.66003 14.3101V16.31M15.66 14.3101V16.31M6.66003 10.31L10.66 4.31006M18.66 10.31L14.6601 4.31006" stroke="white" stroke-width="1.875" stroke-linecap="round"/>
</g>
</svg>
