<svg width="24" height="25" viewBox="0 0 24 25" fill="none" xmlns="http://www.w3.org/2000/svg">
<g id="instagram">
<path id="Vector" d="M11.9976 9.46872C10.345 9.46872 8.99636 10.8174 8.99636 12.47C8.99636 14.1226 10.345 15.4713 11.9976 15.4713C13.6502 15.4713 14.9988 14.1226 14.9988 12.47C14.9988 10.8174 13.6502 9.46872 11.9976 9.46872ZM20.999 12.47C20.999 11.2272 21.0103 9.99558 20.9405 8.75499C20.8707 7.31402 20.5419 6.03515 19.4883 4.98144C18.4323 3.92548 17.1557 3.59901 15.7148 3.52921C14.472 3.45941 13.2404 3.47067 11.9998 3.47067C10.757 3.47067 9.52546 3.45941 8.28489 3.52921C6.84395 3.59901 5.5651 3.92773 4.51141 4.98144C3.45547 6.0374 3.129 7.31402 3.05921 8.75499C2.98941 9.99783 3.00067 11.2294 3.00067 12.47C3.00067 13.7106 2.98941 14.9444 3.05921 16.185C3.129 17.626 3.45772 18.9048 4.51141 19.9586C5.56736 21.0145 6.84395 21.341 8.28489 21.4108C9.52771 21.4806 10.7593 21.4693 11.9998 21.4693C13.2426 21.4693 14.4742 21.4806 15.7148 21.4108C17.1557 21.341 18.4346 21.0123 19.4883 19.9586C20.5442 18.9026 20.8707 17.626 20.9405 16.185C21.0125 14.9444 20.999 13.7128 20.999 12.47ZM11.9976 17.0879C9.44215 17.0879 7.3798 15.0255 7.3798 12.47C7.3798 9.91452 9.44215 7.85213 11.9976 7.85213C14.553 7.85213 16.6154 9.91452 16.6154 12.47C16.6154 15.0255 14.553 17.0879 11.9976 17.0879ZM16.8045 8.74148C16.2078 8.74148 15.726 8.25966 15.726 7.663C15.726 7.06635 16.2078 6.58452 16.8045 6.58452C17.4011 6.58452 17.8829 7.06635 17.8829 7.663C17.8831 7.80468 17.8554 7.945 17.8012 8.07593C17.7471 8.20686 17.6677 8.32582 17.5675 8.426C17.4673 8.52618 17.3483 8.60561 17.2174 8.65975C17.0865 8.71388 16.9462 8.74166 16.8045 8.74148Z" fill="#828282"/>
</g>
</svg>
