<svg width="62" height="25" viewBox="0 0 62 25" fill="none" xmlns="http://www.w3.org/2000/svg">
<g id="logo" clip-path="url(#clip0_209_4141)">
<path id="Vector" d="M0.691891 0.819888C-0.23063 1.73995 -0.23063 3.17556 0.691891 4.12734C1.64623 5.0474 3.08568 5.0474 4.00821 4.12734C4.9705 3.17556 4.9705 1.73995 4.04002 0.819888C3.1175 -0.139832 1.61442 -0.139832 0.691891 0.819888Z" fill="#DD1470"/>
<path id="Vector_2" d="M4.21514 7.37109H0.51709V24.4398H4.21514V7.37109Z" fill="#DD1470"/>
<path id="Vector_3" d="M34.2446 6.92728C31.6122 6.92728 29.4173 7.78389 27.7392 9.52089C26.3952 10.893 25.584 12.5349 25.3136 14.4464C25.3136 14.4622 25.2977 14.4702 25.2898 14.4702H23.7072C23.6912 14.4702 23.6833 14.4622 23.6833 14.4464V0.574086C23.6833 0.558223 23.6754 0.550293 23.6595 0.550293H20.0171C20.0012 0.550293 19.9932 0.558223 19.9932 0.574086V9.72708C19.9932 9.75088 19.9614 9.75885 19.9455 9.74297C18.5458 7.8711 16.5735 6.93519 14.0048 6.93519C11.6427 6.93519 9.66252 7.7918 7.98451 9.5288C6.30643 11.2658 5.4873 13.3835 5.4873 15.9137C5.4873 18.4043 6.30643 20.5537 7.98451 22.2986C9.66252 24.0356 11.6427 24.8922 14.0048 24.8922C16.5814 24.8922 18.5458 23.9563 19.9455 22.0527C19.9614 22.0369 19.9932 22.0448 19.9932 22.0686V24.4243C19.9932 24.4402 20.0012 24.4481 20.0171 24.4481H23.6595C23.6754 24.4481 23.6833 24.4402 23.6833 24.4243V17.5159C23.6833 17.5001 23.6912 17.4921 23.7072 17.4921H25.3057C25.3216 17.4921 25.3295 17.5001 25.3295 17.5159C25.6158 19.4115 26.427 21.0296 27.771 22.3779C29.4809 24.0515 31.7395 24.9002 34.515 24.9002C37.8234 24.9002 40.3206 23.6787 41.9906 21.2041C41.9986 21.1882 41.9986 21.1723 41.9827 21.1644L38.9845 19.4115C38.9765 19.4036 38.9607 19.4115 38.9527 19.4195C37.9586 20.8075 36.4952 21.5134 34.5548 21.5134C31.7236 21.5134 29.6479 20.0937 29.0832 17.5159C29.0832 17.5001 29.0912 17.4842 29.1071 17.4842H42.6746C42.6905 17.4842 42.6984 17.4763 42.6984 17.4604C42.8018 16.8258 42.8336 16.3182 42.8336 15.9454C42.8336 13.4549 42.0145 11.3055 40.408 9.56057C38.7936 7.8156 36.7418 6.92728 34.2446 6.92728ZM23.6833 17.4445C23.6833 17.4604 23.6754 17.4683 23.6595 17.4683H19.8182C19.8103 17.4763 19.8024 17.4763 19.7944 17.4842C19.5558 18.3646 19.1104 19.1419 18.4583 19.824C17.4324 20.8472 16.1281 21.3627 14.5932 21.3627C13.9411 21.3627 13.3367 21.2675 12.78 21.0851C12.7561 21.0534 12.7403 21.0217 12.7084 20.9899V19.0546C12.7084 18.9991 12.6687 18.9594 12.613 18.9594H9.20921C9.14562 18.9594 9.09785 18.9118 9.09785 18.8484V17.278C9.09785 17.2224 9.14556 17.1748 9.20124 17.1748H12.621C12.6766 17.1748 12.7164 17.1352 12.7164 17.0796V14.8509C12.7164 14.7954 12.6766 14.7557 12.621 14.7557H9.21718C9.15353 14.7557 9.10582 14.7081 9.10582 14.6447V13.0742C9.10582 13.0187 9.15353 12.9711 9.20921 12.9711H12.6289C12.6846 12.9711 12.7244 12.9315 12.7244 12.8759V10.8058C12.7482 10.7741 12.7641 10.7423 12.788 10.7106C13.3526 10.5282 13.9571 10.4251 14.6012 10.4251C16.1441 10.4251 17.4403 10.9406 18.4663 11.9955C19.1581 12.6856 19.6115 13.5025 19.8341 14.4305C19.8421 14.4384 19.8501 14.4464 19.858 14.4464H23.6674C23.6833 14.4464 23.6912 14.4543 23.6912 14.4702V17.4445H23.6833ZM39.072 14.4702H29.0753C29.0594 14.4702 29.0435 14.4543 29.0515 14.4384C29.5763 11.8607 31.485 10.2744 34.2128 10.2744C36.6305 10.2744 38.5789 11.6941 39.1038 14.4384C39.1038 14.4543 39.0879 14.4702 39.072 14.4702Z" fill="#DD1470"/>
<path id="Vector_4" d="M58.3023 9.79062C56.9026 7.87913 54.9144 6.91943 52.3138 6.91943C49.9519 6.91943 47.9716 7.77604 46.2936 9.51304C44.6156 11.25 43.7964 13.3678 43.7964 15.8979C43.7964 18.3884 44.6156 20.5379 46.2936 22.2829C47.9716 24.0199 49.9519 24.8765 52.3138 24.8765C54.9144 24.8765 56.9026 23.9168 58.3023 21.9735V24.4323H62.0002V7.3715H58.3023V9.79062ZM56.7674 19.8241C55.7415 20.8472 54.4372 21.3628 52.9024 21.3628C51.3595 21.3628 50.0632 20.8472 49.0373 19.8241C48.0114 18.7692 47.4944 17.4684 47.4944 15.8979C47.4944 14.3275 48.0114 13.0267 49.0373 12.0036C50.0632 10.9487 51.3675 10.4331 52.9024 10.4331C54.4452 10.4331 55.7415 10.9487 56.7674 12.0036C57.7933 13.0267 58.3102 14.3275 58.3102 15.8979C58.3023 17.4684 57.7933 18.7692 56.7674 19.8241Z" fill="#DD1470"/>
</g>
<defs>
<clipPath id="clip0_209_4141">
<rect width="62" height="25" fill="white"/>
</clipPath>
</defs>
</svg>
